<?xml version="1.0" encoding="UTF-8"?>
<svg width="640" height="480" xmlns="http://www.w3.org/2000/svg" xmlns:svg="http://www.w3.org/2000/svg">
 <!-- Created with SVG-edit - http://svg-edit.googlecode.com/ -->
 <g>
  <title>Layer 1</title>
  <path d="m324,368c-3.547333,0 -4.225342,0 -5.421326,0c-0.804016,0 -1.626007,0 -2.657013,0c-0.674988,0 -1.755005,0 -2.546997,0c-0.861328,0 -1.621338,0 -2.79599,0c-0.804016,0 -1.626007,0 -2.657013,0c-0.674988,0 -1.755005,0 -2.510986,0c-0.910675,0 -1.810669,0 -2.710663,0c-0.900024,0 -1.800018,0 -2.700012,0c-0.799988,0 -1.757172,0 -2.652679,0c-0.863312,0 -1.826477,0 -2.647308,0c-0.900024,0 -1.800018,0 -2.700012,0c-0.799988,0 -1.700012,0 -2.600006,0c-0.899994,0 -1.799988,0 -2.699982,0c-0.900024,0 -1.800018,0 -2.700012,0c-0.799988,0 -1.700012,0 -2.600006,0c-0.920837,0 -1.884003,0 -2.574646,0c-1.068176,0 -1.925354,0 -2.825348,0c-0.799988,0 -1.700012,0 -2.600006,0c-0.899994,0 -1.799988,0.000671 -2.699982,0c-0.900024,-0.000671 -1.736664,-0.326141 -2.5,-0.716003c-0.752899,-0.384521 -1.700012,-0.283997 -2.600006,-0.283997c-0.899994,0 -1.897888,0.159332 -2.547333,-0.352661c-0.614624,-0.484528 -1.452667,-0.647339 -2.352661,-0.647339c-0.900024,0 -1.8013,0.047791 -2.700012,0c-0.803375,-0.042725 -1.47168,-0.629211 -2.321335,-0.87851c-0.825684,-0.242279 -1.793335,-0.12149 -2.778671,-0.12149c-0.899994,0 -1.657166,0 -2.552658,0c-0.863342,0 -1.849106,0.030609 -2.65184,-0.352661c-0.890793,-0.425293 -1.561981,-0.470306 -2.528824,-0.813995c-0.809464,-0.28775 -1.490509,-0.71701 -2.488007,-1.054688c-0.694901,-0.235229 -1.500854,-0.690643 -2.374161,-0.77417c-0.936249,-0.089539 -1.802536,0.103149 -2.65184,-0.061646c-0.92572,-0.179626 -1.657349,-0.76059 -2.409836,-0.995514c-0.901489,-0.281433 -1.558044,-0.730896 -2.628159,-0.911316c-0.935486,-0.157715 -1.630463,0.081665 -2.55217,-0.09317c-0.926468,-0.175751 -1.558624,-0.79834 -2.262497,-1.22818c-0.675385,-0.412445 -1.215317,-1.38858 -2.100006,-1.657501c-0.862915,-0.262299 -1.759567,-0.342133 -2.399994,-0.704498c-0.820786,-0.464417 -1.398682,-1.041382 -2.101334,-1.436676c-0.81694,-0.459595 -1.639999,-0.799835 -2.398666,-1.199982c-0.858383,-0.452728 -1.358536,-0.924683 -2.021332,-1.594666c-0.609772,-0.616394 -1.254272,-1.016022 -2.078674,-1.473999c-0.742294,-0.412354 -1.490631,-0.747528 -2.199997,-1.147339c-0.878189,-0.494965 -1.44487,-1.071899 -2.110672,-1.52533c-0.727615,-0.495514 -1.071838,-1.354401 -1.674667,-1.890656c-0.650208,-0.5784 -1.454132,-0.815521 -2.198654,-1.284027c-0.675522,-0.425079 -1.57933,-1.075409 -2.211502,-1.44281c-0.849091,-0.493469 -1.743744,-0.761017 -2.220505,-1.555847c-0.414429,-0.690887 -1.384048,-0.639282 -2.031326,-1.153992c-0.619125,-0.49234 -1.366516,-0.989777 -2.052673,-1.647339c-0.510529,-0.489258 -1.119125,-1.31134 -1.800003,-1.714661c-0.827148,-0.48996 -1.608826,-0.712158 -2.300003,-1.385345c-0.607864,-0.592041 -1.189255,-1.210907 -1.899994,-1.899994c-0.591217,-0.573212 -1.44133,-0.88385 -2.199997,-1.283997c-0.858383,-0.452728 -1.736664,-0.312622 -2.514664,-0.801331c-0.740082,-0.464874 -1.243607,-1.148621 -1.985336,-1.562012c-0.763687,-0.425629 -1.60376,-0.70578 -2.300003,-1.352661c-0.603271,-0.560486 -1.44133,-0.88385 -2.199997,-1.283997c-0.858383,-0.452728 -1.561752,-0.676331 -2.300003,-1.236847c-0.776062,-0.589203 -1.317215,-1.15271 -2.100006,-1.504486c-0.820221,-0.368591 -1.421417,-1.176605 -2.099991,-1.617493c-0.792328,-0.514801 -1.20752,-1.16629 -1.736008,-1.746521c-0.624847,-0.686005 -1.620895,-0.90036 -2.263992,-1.257996c-0.853119,-0.474426 -1.789261,-0.728607 -2.217331,-1.553986c-0.335617,-0.647095 -0.821228,-1.4245 -1.377335,-2.145996c-0.571396,-0.741364 -0.759949,-1.762787 -1.31601,-2.216675c-0.752838,-0.614502 -1.240967,-1.166931 -1.825333,-1.825348c-0.615234,-0.693176 -1.421463,-0.941925 -1.989334,-1.585327c-0.524612,-0.594391 -0.840332,-1.461517 -1.674667,-1.903992c-0.834808,-0.442749 -1.479095,-0.724762 -1.899994,-1.621338c-0.37056,-0.789337 -1.24379,-1.154846 -1.878662,-1.721344c-0.600082,-0.535461 -0.976822,-1.27478 -1.406677,-1.978668c-0.412445,-0.675354 -1.275818,-1.257355 -1.661987,-2.099976c-0.35231,-0.768768 -0.72699,-1.517395 -1.078003,-2.300018c-0.367996,-0.820496 -1.07579,-1.498871 -1.674667,-2.100006c-0.596619,-0.598877 -1.035858,-1.458954 -1.466675,-2.299988c-0.340302,-0.664337 -1.137131,-1.296234 -1.633331,-1.799988c-0.684433,-0.694855 -0.977875,-1.526245 -1.201324,-2.398682c-0.206207,-0.805115 -0.745102,-1.422974 -1.051346,-2.096008c-0.397537,-0.873688 -0.934723,-1.409912 -0.947327,-2.305328c-0.01268,-0.900146 -0.521774,-1.746246 -0.878662,-2.5c-0.404373,-0.854065 -0.876816,-1.438965 -1.10051,-2.399994c-0.204163,-0.877106 -0.409958,-1.645294 -0.736832,-2.385345c-0.393906,-0.891815 -0.32341,-1.651154 -0.783997,-2.593811c-0.408661,-0.836365 -1.170532,-1.327698 -1.479172,-2.041687c-0.348938,-0.80719 0.040863,-1.820435 -0.446167,-2.453827c-0.532959,-0.693115 -1.118439,-1.383209 -1.40799,-2.191986c-0.29335,-0.819366 -0.308044,-1.842102 -0.59201,-2.622681c-0.267136,-0.734344 -0.431213,-1.628571 -0.860001,-2.411987c-0.411362,-0.751617 -0.930511,-1.50766 -1.414658,-2.088837c-0.674637,-0.809845 -1.157013,-1.440277 -1.384003,-2.227173c-0.254135,-0.881012 -1.116898,-1.504791 -1.558838,-2.182678c-0.478455,-0.733917 -0.900345,-1.503265 -1.235657,-2.399994c-0.318085,-0.850632 -0.135269,-1.749954 -0.642334,-2.399994c-0.599899,-0.769058 -1.226044,-1.376236 -1.426498,-2.148163c-0.261871,-1.008408 -0.924141,-1.51178 -1.052673,-2.351837c-0.121681,-0.795288 -0.642845,-1.570068 -1.198669,-2.199997c-0.675636,-0.765717 -0.615356,-1.526855 -0.837334,-2.400009c-0.219208,-0.862274 -0.753014,-1.653625 -1.185333,-2.5c-0.334724,-0.655304 -0.767998,-1.5 -0.778664,-2.399994c-0.010666,-0.899994 -0.408882,-1.627289 -0.833336,-2.5c-0.320839,-0.659668 -0.852852,-1.422363 -1.109497,-2.300003c-0.253113,-0.865555 0.035667,-1.815918 -0.142502,-2.585327c-0.225502,-0.973831 -0.571686,-1.65007 -0.914665,-2.593842c-0.305756,-0.841339 -1.071655,-1.460892 -1.479164,-2.020828c-0.601547,-0.826553 -0.389175,-1.850067 -0.742172,-2.600006c-0.365044,-0.775528 -0.767998,-1.5 -0.778664,-2.399994c-0.010666,-0.899994 -0.500511,-1.718811 -0.833336,-2.5c-0.32019,-0.751541 -0.223831,-1.699997 -0.666664,-2.5c-0.442833,-0.800003 -0.5,-1.699997 -0.5,-2.600006c0,-0.899994 -0.095612,-1.694016 -0.5,-2.399994c-0.454483,-0.793442 -0.5,-1.699997 -0.5,-2.600174c0,-0.785156 0.149353,-1.763351 -0.166664,-2.733154c-0.225174,-0.691025 -0.804741,-1.465317 -0.833336,-2.366669c-0.028542,-0.899551 0.173553,-1.838257 -0.085335,-2.600006c-0.301765,-0.887909 -0.89666,-1.610123 -0.914665,-2.521332c-0.016861,-0.853165 0.089119,-1.810043 -0.085335,-2.562668c-0.225998,-0.975006 -0.749886,-1.607132 -0.893829,-2.595169c-0.132782,-0.911438 -0.020836,-1.820831 -0.020836,-2.720825c0,-0.900009 0,-1.800003 0,-2.600006c0,-0.899994 0,-1.800003 0,-2.699997c0,-0.899994 0,-1.800003 0,-2.699997c0,-0.900009 0,-1.800003 0,-2.600006c0,-0.899994 0,-1.800003 0,-2.699997c0,-0.899994 0,-1.800003 0,-2.699997c0,-0.900009 -0.337082,-1.948898 0.166664,-2.633331c0.480606,-0.653 0.744652,-1.271057 0.833336,-2.166672c0.08374,-0.845688 0.814278,-1.3311 1.221336,-2.100006c0.401039,-0.757538 0.937157,-1.414948 1.494667,-1.983994c0.659042,-0.672684 1.073296,-1.298218 1.285332,-2.11467c0.207878,-0.800446 1.058914,-1.242203 1.573334,-1.82666c0.548714,-0.623428 0.967415,-1.420364 1.720833,-1.921997c0.689262,-0.458923 0.633636,-1.401123 1.129829,-2.027344c0.526962,-0.665054 1.013535,-1.267532 1.741333,-1.858658c0.696686,-0.565857 1.52375,-0.590729 2.3125,-1.166672c0.640274,-0.467529 1.349098,-0.587311 2.163666,-1.057159c0.686844,-0.396179 1.107437,-1.224777 1.523842,-1.942841c0.420456,-0.725052 1.365402,-0.934723 2.133331,-1.352661c0.840958,-0.457687 1.671738,-0.859039 2.300003,-1.222c0.845673,-0.488571 1.406448,-1.028015 2.104492,-1.478012c0.775803,-0.500122 1.31366,-1.154358 1.995499,-1.590164c0.82399,-0.526657 1.692307,-0.801361 2.400009,-1.457001c0.593628,-0.549957 1.467819,-0.776184 2.199997,-1.257324c0.79425,-0.521927 1.260468,-1.28537 1.901337,-1.841507c0.64711,-0.561554 1.643082,-0.690506 2.314667,-0.88533c1.007614,-0.292313 1.751053,-0.679733 2.584,-1.137497c0.675018,-0.370972 1.290787,-1.187851 1.899994,-1.778503c0.591217,-0.573212 1.536316,-0.927032 2.300003,-1.352661c0.741714,-0.413391 1.480759,-0.764175 2.300003,-1.222c0.772461,-0.431686 1.341187,-1.00267 2.010666,-1.450668c0.735428,-0.492126 1.64296,-0.763672 2.489334,-1.195999c0.655304,-0.334732 1.573792,-0.445526 2.379166,-0.7995c0.712082,-0.312973 1.349091,-0.566483 2.163666,-1.036331c0.686844,-0.396179 1.3936,-0.774673 2.157166,-1.028168c0.772171,-0.256348 1.498642,-0.886002 2.399994,-0.914673c0.899384,-0.02861 1.477692,-0.566788 2.236008,-0.964005c0.762207,-0.399261 1.372742,-0.702194 2.084824,-1.015167c0.805374,-0.353966 1.715561,-0.482765 2.479172,-0.854164c0.753906,-0.366676 1.53775,-0.911354 2.399994,-1.130661c0.868759,-0.220963 1.40686,-0.70652 2.120834,-1.015167c0.80722,-0.348953 1.790512,-0.00354 2.479172,-0.520836c0.625687,-0.469994 1.5,-0.497742 2.399994,-0.5c0.895523,-0.002251 1.40686,-0.670517 2.120834,-0.979164c0.80722,-0.348953 1.779175,-0.020836 2.679169,-0.020836c0.900009,0 1.8004,0.025368 2.600006,0c0.901352,-0.028595 1.62236,-0.686188 2.5,-0.942833c0.865555,-0.253113 1.853485,0.124184 2.699997,-0.223831c0.671082,-0.275894 1.499817,-0.822914 2.399994,-0.833336c0.899948,-0.010414 1.808609,0.124008 2.699844,-0.000168c0.80188,-0.111725 1.261078,-0.957123 2.221664,-1c0.698929,-0.031197 1.687241,-0.14119 2.467834,-0.425163c0.734314,-0.267143 1.723969,-0.50396 2.510666,-0.927338c0.843094,-0.453728 1.477097,-0.77079 2.300003,-1.222c0.780121,-0.42775 1.775513,-0.25341 2.599991,-0.710663c0.692062,-0.383812 1.254379,-1.277298 2,-1.630669c0.858871,-0.407043 1.46489,-0.826286 2.210663,-1.484001c0.723877,-0.638397 1.431732,-0.971893 2.105347,-1.400002c0.871552,-0.553902 1.727753,-0.854897 2.362823,-1.421494c0.672668,-0.600136 1.116013,-1.324554 1.954498,-1.611839c0.841599,-0.288353 1.54744,-0.608658 2.085342,-1.366661c0.572296,-0.806488 1.167313,-1.043159 2.023331,-1.5c0.834167,-0.445175 1.394806,-1.151253 2.032669,-1.725334c0.57872,-0.520859 1.184235,-1.092697 1.741333,-1.658669c0.660629,-0.671143 1.06958,-1.357956 1.569336,-2.11467c0.402145,-0.608917 1.150406,-1.043411 1.881332,-1.634666c0.6978,-0.564461 1.411713,-0.80014 2.137833,-1.466667c0.56459,-0.518265 1.434189,-0.880737 2.12616,-1.5c0.650528,-0.582176 1.197037,-1.193367 1.96933,-1.625328c0.818085,-0.457581 1.411987,-1.06324 2.036011,-1.549339c0.742172,-0.578125 1.149094,-1.175049 1.730667,-1.858665c0.566589,-0.666 1.290405,-0.930054 2.031998,-1.451996c0.781616,-0.55011 0.761292,-1.4767 1.322159,-2.214668c0.590164,-0.776512 1.250488,-1.136299 1.8685,-1.900002c0.601822,-0.743683 0.994171,-1.393761 1.567001,-1.961662c0.689835,-0.683907 1.102478,-1.295967 1.803665,-1.813004c0.901978,-0.665092 1.587814,-0.951889 2.073349,-1.825333c0.407318,-0.73275 0.682251,-1.505142 1.366669,-2.199997c0.595428,-0.604515 1.362579,-1.254395 1.715973,-2c0.407013,-0.858711 0.970276,-1.187134 1.64801,-1.861336c0.640869,-0.637535 0.402649,-1.542038 0.440491,-2.534164c0.028564,-0.74865 0.583313,-1.690529 0.874023,-2.504501c0.305481,-0.855247 -0.074463,-1.734444 0.17865,-2.599998c0.256653,-0.87764 0.914246,-1.598648 0.942841,-2.500004c0.028534,-0.899544 0,-1.799999 0,-2.599998c0,-0.900002 -0.001953,-1.819614 0.425323,-2.600002c0.450378,-0.822571 0.401123,-1.638252 0.660004,-2.399998c0.301758,-0.887917 0.895996,-1.599476 0.914673,-2.5c0.018677,-0.899811 0.117828,-1.913944 0.704498,-2.342834c0.75946,-0.555206 1.1763,-1.196297 1.816345,-1.836334c0.640015,-0.64003 1.390137,-1.035217 1.979156,-1.6875c0.498199,-0.551716 1.272705,-0.990875 2.166656,-1.666664c0.671112,-0.507328 1.483063,-0.751751 2.166687,-1.333336c0.666016,-0.566593 1.150055,-1.250809 1.666656,-1.833332c0.534485,-0.602676 0.870728,-1.49963 1.700012,-1.916c0.849335,-0.426434 1.456299,-0.882549 2.399994,-1.073334c0.862274,-0.174324 1.399628,-0.624088 2.104492,-1.063332c0.790039,-0.492321 1.616821,-0.827114 2.316345,-0.947334c0.978882,-0.168228 1.795593,-0.386524 2.493835,-0.801334c0.888092,-0.527615 1.581696,-1.108139 2.485321,-1.198666c0.869019,-0.087055 1.764679,-0.218403 2.675995,-0.425335c0.648499,-0.147247 1.817505,-0.456692 2.615997,-0.538666c0.904022,-0.092812 1.672333,-0.264526 2.343994,-0.610664c0.812134,-0.418533 1.711334,-0.423084 2.728027,-0.425335c0.935974,-0.002071 1.835999,0 2.735992,0c0.899994,0 1.599487,-0.058121 2.399994,-0.5c0.803986,-0.44379 1.666656,-0.5 2.520844,-0.5c0.979156,0 1.768494,0 2.8125,0c0.755981,0 1.687805,0.022358 2.651978,-0.001335c0.725952,-0.017841 1.718567,-0.208862 2.493835,-0.498665c0.858887,-0.32106 1.716339,-0.497749 2.65683,-0.5c0.85202,-0.002039 1.646667,0 2.697357,0c0.637329,0 1.708313,0 2.475647,0c1.19101,0 1.988342,0 2.769684,0c0.749329,0 1.450653,0 2.650665,0c0.949341,0 1.77066,0 2.570648,0c0.800018,0 1.80661,-0.058083 2.600006,0.057167c1.016052,0.147594 1.820892,0.579758 2.766663,0.776165c0.777008,0.161362 1.607971,0.161335 2.666687,0.166668c0.919983,0.004635 1.753601,-0.34539 2.625,0.020832c0.730682,0.307083 1.014526,1.286457 1.763336,1.857834c0.553284,0.422176 1.62677,0.516678 2.294312,0.922668c0.881683,0.536217 1.634552,0.951389 2.484009,1.365334c0.652252,0.317848 1.536316,0.760372 2.299988,1.185997c0.74173,0.413395 1.245331,1.09708 1.985352,1.562c0.776855,0.488049 1.392303,0.652218 2.150665,1.049335c0.766235,0.401237 1.716339,0.395424 2.363983,0.751999c0.863678,0.47551 1.354309,1.20026 2.200012,1.284c0.796082,0.078827 1.700958,0.05545 2.5,0.5c0.800934,0.445614 1.53125,0.836899 2.299988,1.216c0.845245,0.416824 1.839874,0.247757 2.610687,0.720001c0.80426,0.492725 1.392761,1.004646 2.105316,1.278667c0.919006,0.353405 1.477203,1.098209 2.245667,1.28083c0.862518,0.204975 1.578918,0.198837 2.321014,0.720501c0.836151,0.587765 1.505707,0.882835 2.317322,1.258667c0.883636,0.40918 1.132019,1.224018 1.766663,1.858665c0.634644,0.634663 1.324646,0.96106 1.833344,1.645836c0.515717,0.694244 1.053619,1.224792 1.5,2.020832c0.448303,0.799461 0.867401,1.647999 1.216003,2.299999c0.453064,0.847393 0.718475,1.59444 1.199982,2.398666c0.445221,0.743626 1.02887,1.373249 1.694672,1.826668c0.727631,0.495529 1.189301,1.22076 1.556,1.974667c0.371399,0.763611 0.963806,1.453896 1.480682,2.052666c0.533661,0.618217 0.600189,1.668312 1.057159,2.237503c0.658844,0.820648 1.645477,1.028069 2.09549,1.596497c0.56781,0.717194 0.837891,1.505577 1.5,2.356171c0.459229,0.589966 1.245178,1.246048 1.800018,2.078499c0.43689,0.65551 0.939575,1.484436 1.37915,2.157829c0.516541,0.791298 0.837402,1.562462 1.236847,2.320839c0.415405,0.788681 0.53299,1.702316 0.894653,2.374664c0.445801,0.828773 1.1586,1.460083 1.684845,2.129829c0.627808,0.799034 0.631104,1.539925 0.788513,2.296837c0.2099,1.009415 0.604126,1.752457 1.211487,2.641502c0.523895,0.766876 1.07431,1.185356 1.583008,1.978661c0.478729,0.746559 0.12149,1.778503 0.12149,2.578506c0,0.899994 -0.001953,1.819611 0.425323,2.599998c0.450378,0.822571 0.393311,1.753479 0.741333,2.599998c0.275909,0.671082 0.733643,1.405113 0.83783,2.304497c0.100952,0.87146 0.578033,1.667061 0.828857,2.528839c0.245148,0.842339 0.164703,1.786278 0.59198,2.566666c0.450378,0.822571 0.485992,1.704376 0.574677,2.599998c0.08374,0.845703 0.926941,1.21669 1,2.166664c0.062317,0.810371 0.482361,1.5214 0.878662,2.276169c0.351837,0.67009 0.498596,1.621162 0.837341,2.355835c0.395111,0.856972 0.282043,1.820946 0.70932,2.601334c0.450378,0.822571 0.31839,1.824913 0.796021,2.478668c0.510712,0.699059 0.589783,1.390625 1.000153,2.221329c0.341156,0.690582 1.145416,1.340446 1.87851,1.778831c0.865326,0.517464 1.146576,1.110924 1.899994,1.787834c0.615112,0.55265 1.220276,1.195274 2.0625,1.633339c0.673615,0.350357 1.606506,0.696053 2.265503,1.089325c0.87381,0.521454 1.410828,1.218994 2.108002,1.574677c0.766449,0.391037 1.437897,0.761581 2.174652,1.02533c0.837372,0.299759 1.789337,0.01001 2.689331,0.010666c0.900024,0.000671 1.646576,0.263565 2.457184,0.647339c0.852295,0.403519 1.590149,0.350403 2.606842,0.352661c0.935974,0.002075 1.837341,-0.00795 2.802643,0c0.648071,0.005341 1.443268,0.551788 2.190521,0.942841c0.748474,0.391708 1.74411,0.009369 2.642822,0.057159c0.803375,0.042725 1.469238,0.650558 2.485321,0.914673c0.705719,0.183441 1.714691,0.085327 2.514679,0.085327c1,0 1.789337,0 2.833344,0c0.6875,0 1.70932,0 2.417328,0c0.981323,0 1.934998,0 2.849335,0c0.899994,0 1.699982,0 2.600006,0c0.935974,0 1.785309,0 2.510651,0c1.189331,0 1.989349,0 2.989166,0c0.779327,0 1.633514,0 2.495667,0c0.90451,0 1.804504,0 2.704498,0c0.90451,0 1.766663,0 2.641663,0c0.64502,0 1.643677,0 2.479187,0c0.880493,0 2.076477,0 2.657837,0c1.050659,0 2.006989,0 2.921326,0c0.899994,0 1.699982,0 2.600006,0c0.899994,0 1.799988,-0.002258 2.699982,0c0.895508,0.002258 1.406494,0.671387 2.12085,0.979172c0.899445,0.387527 1.923706,-0.074646 2.679169,0.304825c0.867188,0.435577 1.526428,0.725098 2.320831,1.236832c0.830536,0.535004 1.454559,1.022949 2.3125,1.3125c0.842896,0.284485 1.47702,0.784714 2.366669,1.081345c0.857635,0.28595 1.75827,0.319275 2.5,0.732666c0.763672,0.425629 1.531097,0.829163 2.399994,1.231323c0.662018,0.306412 1.558685,0.596817 2.289337,1.096008c0.676453,0.462173 0.840851,1.53627 1.710663,1.903824c0.836548,0.3535 1.718658,0.177338 2.420837,0.642334c0.823792,0.545517 1.506012,0.936905 2.3125,1.479172c0.691528,0.464981 1.479797,1.11496 2.1875,1.5c0.573975,0.312271 1.591583,0.769943 2.321991,1.199997c0.792847,0.466812 1.378784,1.06073 2.309814,1.242844c0.84906,0.166092 1.730713,0.158783 2.400024,0.704498c0.59491,0.485062 1.434998,0.886475 2.148682,1.552658c0.546509,0.510117 1.295532,0.98262 2.009338,1.436005c0.802856,0.509949 1.396301,1.004501 2.132141,1.711334c0.645935,0.620483 1.238586,1.222504 2.157166,1.652664c0.793396,0.371552 1.587463,0.928406 2.064026,1.600006c0.514893,0.725647 1.062073,1.228363 1.731445,1.757156c0.741089,0.585449 0.668213,1.542725 1.351196,2.242844c0.586365,0.60112 1.384338,0.851593 2.186646,1.399994c0.674316,0.460922 1.366699,1.200012 1.966675,1.800003c0.600037,0.600006 1.301147,1.298859 1.900024,1.899994c0.601135,0.603363 1.098816,1.186096 1.700012,2.11467c0.39917,0.616516 1.201721,1.174759 1.652649,1.889832c0.431335,0.68399 1.114014,1.462189 1.599976,1.948166c0.694702,0.694687 1.325867,1.325836 1.936707,1.936676c0.710632,0.710663 1.299683,1.134125 1.889832,1.91066c0.560852,0.737961 0.710571,1.627579 1.322144,2.300003c0.570313,0.627045 1.298645,1.300003 1.798645,1.800003c0.700012,0.699997 1.48938,1.327103 1.96405,2c0.518372,0.734787 0.626099,1.725769 1.435974,2.233322c0.583496,0.365677 1.336487,0.818863 1.825317,1.453339c0.539063,0.699692 1.231506,1.514252 1.728027,2.291992c0.494141,0.773987 0.291748,1.782822 0.668152,2.521347c0.349731,0.686279 1.196167,1.282806 1.878357,2c0.557739,0.586304 0.776184,1.467819 1.257324,2.199997c0.521912,0.794235 1.288574,1.306412 1.560181,2.18399c0.208618,0.673981 0.653259,1.630432 1.268005,2.141342c0.649353,0.539673 1.199707,1.232147 1.624451,1.893494c0.523193,0.814682 0.956665,1.450241 1.440857,2.131836c0.497131,0.699783 1.002686,1.367264 1.606323,2.306335c0.488525,0.76001 0.823425,1.439407 1.34436,2.442993c0.313171,0.603317 0.948181,1.614441 1.451294,2.195511c0.505249,0.583481 1.259521,1.169907 1.805664,1.883667c0.580627,0.758804 0.775391,1.612198 1.246216,2.278c0.510254,0.721542 0.933167,1.524643 1.462158,2.576157c0.318359,0.632813 0.653381,1.309433 1.007996,1.980011c0.336365,0.635986 1.125183,1.775833 1.463623,2.373154c0.448242,0.791199 0.621216,1.813644 1.008362,2.560181c0.486511,0.938141 0.83667,1.437759 1.353333,2.253326c0.346924,0.547607 0.988464,1.573013 1.364014,2.264008c0.340576,0.626633 0.835999,1.636002 1.235962,2.435989c0.400024,0.800018 0.810669,1.621353 1.157166,2.314331c0.409546,0.819016 0.732971,1.44873 1.222046,2.464844c0.315796,0.656036 0.647949,1.534958 1,2.458328c0.336304,0.882095 0.796143,1.433655 0.995483,2.398499c0.156433,0.757111 0.398804,1.751633 0.672668,2.506836c0.32489,0.895844 0.521301,1.82309 0.778015,2.493164c0.292908,0.764481 0.415344,1.781815 0.65863,2.678665c0.239624,0.883438 0.820374,1.690643 1,2.456009c0.187866,0.800293 0.472412,1.514664 0.749329,2.695999c0.183716,0.783737 0.066956,1.67244 0.450684,2.535995c0.288879,0.650146 0.656372,1.563538 0.69519,2.297333c0.061646,1.165222 0.020813,1.958344 0.020813,2.899994c0,0.90451 0,1.766663 0,2.600006c0,0.978485 0,1.798676 0,2.700012c0,0.899994 0,1.799988 0,2.699982c0,0.90451 0,1.766663 0,2.600006c0,0.978485 0,1.798676 0,2.700012c0,0.899994 0,1.799988 0,2.604492c0,1.016815 0,1.695496 0,2.673981c0,1.021515 0,1.821503 0,2.721527c0,0.899994 0,1.799988 0,2.699982c0,0.899994 0.134216,1.868134 -0.283997,2.517334c-0.49176,0.763367 -0.6203,1.499969 -1.073181,2.3255c-0.342224,0.62381 -1.161255,1.239227 -1.842834,1.958496c-0.514282,0.542694 -0.911682,1.343231 -1.5,2.088837c-0.527588,0.66861 -1.413208,1.143707 -1.799988,1.730682c-0.621826,0.943726 -0.98938,1.501129 -1.82135,2.079315c-0.655701,0.455658 -1.535522,1.047882 -2.042664,1.714508c-0.456421,0.600006 -1.205688,1.106628 -1.957458,1.628326c-0.756287,0.524872 -1.280212,1.159332 -1.878357,1.756836c-0.589844,0.589172 -1.295959,1.334412 -1.914856,1.913513c-0.664368,0.621643 -1.518372,0.94519 -1.969299,1.687988c-0.427612,0.704346 -1.116028,1.398682 -1.716003,1.998657c-0.600037,0.600006 -1.325256,1.277832 -1.835999,1.872009c-0.722351,0.840363 -1.006165,1.344757 -1.574707,2.077332c-0.380737,0.490509 -1.173706,1.300507 -1.953308,1.829346c-0.800415,0.542908 -1.477112,1.022369 -2.036011,1.906647c-0.442566,0.700195 -0.762451,1.535614 -1.221313,2.314667c-0.364014,0.618011 -1.111694,1.411774 -1.588501,1.800018c-0.760315,0.619141 -1.337219,0.964355 -2.303528,1.799988c-0.666321,0.576202 -1.222046,1.183807 -1.803955,2c-0.419739,0.588745 -0.815918,1.237762 -1.652039,2.001343c-0.472595,0.43161 -1.31311,1.023499 -2.063965,1.76532c-0.501343,0.495331 -1.125854,1.311859 -1.505005,1.823517c-0.641785,0.866089 -1.182129,1.493866 -1.828369,2.34317c-0.502136,0.659973 -0.820618,1.175781 -1.349304,1.898651c-0.710022,0.970734 -1.195007,1.505951 -1.783997,2.416168c-0.41095,0.635071 -1.173401,1.155823 -1.901367,1.639832c-0.640015,0.425537 -1.122375,1.25296 -1.623962,1.962677c-0.524536,0.742218 -1.102966,1.653961 -1.674683,2.207672c-0.617004,0.597595 -1.605835,0.902832 -2.166687,1.541656c-0.52594,0.599091 -0.814758,1.552002 -1.633301,1.947327c-0.866882,0.41864 -1.423401,0.811798 -2.352661,1.348175c-0.672668,0.388275 -1.645752,0.516968 -2.44751,0.925995c-0.726379,0.370544 -1.35968,1.027069 -2.074524,1.342499c-1.038269,0.45813 -1.882202,0.725708 -2.52533,1.083344c-0.853088,0.474396 -1.700012,0.788666 -2.299988,1.352661c-0.599976,0.563995 -1.514343,0.847565 -2.400024,1.010681c-0.831421,0.153107 -1.588013,0.887817 -2.299988,0.984833c-0.928284,0.126495 -1.773926,0.318848 -2.510681,0.579163c-0.97583,0.344788 -1.805786,0.34613 -2.789307,0.59198c-0.818909,0.204712 -1.395081,0.547943 -2.402649,1.033356c-0.635986,0.306396 -1.358032,0.631409 -2.566711,0.998657c-0.686768,0.208679 -1.412476,0.383545 -2.14798,0.515991c-1.05661,0.190277 -2.039398,0.227814 -2.92099,0.338013c-1.045471,0.130676 -1.701508,0.410736 -2.475006,0.66333c-0.951569,0.31076 -1.886658,0.283997 -2.791168,0.283997c-0.862152,0 -1.783051,-0.191284 -2.585663,0.352661c-0.678436,0.459778 -1.416351,0.540375 -2.309845,0.648682c-0.919769,0.111481 -1.566833,0.844604 -2.399994,0.987976c-0.907562,0.156158 -1.884003,0.010681 -2.574646,0.010681c-1.077179,0 -1.794678,0 -2.830688,0c-0.743988,0 -1.851654,0 -2.573334,0c-0.921326,0 -1.82132,0 -2.721313,0c-0.901337,0 -1.866669,0 -2.700012,0c-0.833344,0 -1.752655,0 -2.657166,0c-0.747345,0 -1.742828,0 -2.542847,0c-0.999817,0 -1.779144,0 -2.778809,0c-0.831024,0 -1.790527,0 -2.542023,0c-0.796478,0 -1.793823,0 -2.668488,0c-1.010834,0 -1.831512,0 -2.496002,0c-0.998657,0 -1.814667,0 -2.630676,0c-1.226837,0 -2.079498,0 -3.083984,0c-0.800018,0 -1.800018,0 -2.600006,0c-1,0 -1.799988,0 -2.600006,0c-0.801331,0 -1.635986,0 -2.821167,0c-0.793488,0 -1.569,0 -2.609497,0c-0.717499,0 -1.622009,0 -2.485321,0c-0.984009,0 -1.96933,0 -2.694672,0c-0.989166,0 -1.768494,0 -2.767822,0c-0.82019,0 -1.721527,0 -2.621521,0c-0.920837,0 -1.885315,0 -2.610657,0c-0.989166,0 -1.769073,0.034149 -2.768158,-0.000153c-0.832489,-0.028595 -1.794739,-0.272095 -2.542023,-0.520691c-0.801239,-0.266541 -1.805603,-0.652405 -2.4375,-0.979156c-0.895172,-0.462891 -1.435364,-0.939087 -2.181671,-1.470673c-0.831329,-0.592133 -1.570404,-1.035034 -1.961304,-1.279999c-0.796906,-0.49942 -1.578278,-0.958221 -2.513184,-1.606659c-0.685333,-0.475342 -1.430786,-1.117401 -2.149841,-1.685516c-0.598236,-0.472626 -1.274353,-0.982025 -1.992004,-1.508972c-1.072601,-0.787567 -1.753845,-1.266083 -2.396973,-1.701508c-0.597137,-0.404266 -1.163269,-0.754639 -2.162689,-1.365326c-0.686249,-0.419342 -1.396362,-0.907623 -2.105316,-1.645508c-0.554413,-0.577026 -1.077545,-1.257599 -1.626007,-1.934998c-0.784393,-0.968811 -1.25946,-1.53479 -1.705994,-2.018188c-0.576691,-0.624298 -1.385986,-1.379059 -1.872009,-1.944c-0.732635,-0.851593 -1.035675,-1.350372 -1.585327,-2.159973c-0.393433,-0.579498 -0.989319,-1.478699 -1.589325,-2.378693c-0.399994,-0.600006 -0.800751,-1.199493 -1.399841,-2.099823c-0.396149,-0.595337 -0.971283,-1.459717 -1.31485,-2.014832c-0.614105,-0.992188 -0.93399,-1.699921 -1.651978,-2.685333c-0.454712,-0.624084 -1.043945,-1.171722 -1.666687,-2c-0.440277,-0.585632 -0.77948,-1.243378 -1.333313,-2.166656c-0.475372,-0.79248 -0.843109,-1.32724 -1.349335,-2.149353c-0.610504,-0.991455 -0.966339,-1.66153 -1.282684,-2.282654c-0.506378,-0.994263 -0.881348,-1.757446 -1.401337,-2.518677c-0.481781,-0.705292 -0.924072,-1.415894 -1.189331,-2.133331c-0.358521,-0.969696 -0.431274,-1.983002 -0.832001,-2.849487c-0.328674,-0.710693 -0.742737,-1.551239 -0.77417,-2.247162c-0.046844,-1.037079 -0.167603,-1.987 -0.357147,-2.662506c-0.217957,-0.776672 -0.493622,-1.821655 -0.622009,-2.754181c-0.086761,-0.630341 -0.316803,-1.631866 -0.600006,-2.399994c-0.349243,-0.947296 -0.425323,-1.835999 -0.425323,-2.65033c0,-0.955017 0,-1.706512 0,-2.502991c0,-1.225525 0,-1.872009 0,-2.88269c0,-0.799988 0,-1.799988 0,-2.589325c0,-1.044006 0,-1.906158 0,-2.710663c0,-0.910675 0,-1.82132 0,-2.674652c0,-0.940002 0,-1.825348 0,-2.625336c0,-0.872009 0,-1.968018 0,-2.700012c0,-0.731995 0,-1.838654 0,-2.82132c0,-0.67868 0,-1.657166 0,-2.477356c0,-0.901337 0,-1.801331 0,-2.701324c0,-0.899994 0,-1.799988 0,-2.700012c0,-0.899994 -0.322357,-1.953796 0.221344,-2.67865c0.4823,-0.643005 0.613129,-1.424164 1.131317,-2.068665c0.491547,-0.611359 1.369324,-0.914551 2.036682,-1.488678c0.625153,-0.537842 0.941742,-1.378265 1.710663,-1.785339c0.757507,-0.401031 1.517792,-0.770233 2.299988,-1.203979c0.82016,-0.454803 1.753479,-0.393311 2.600006,-0.741333c0.671082,-0.275909 1.514343,-0.680939 2.399994,-0.844025c0.831451,-0.153107 1.586334,-0.901428 2.300018,-0.984833c0.893921,-0.104462 1.799988,-0.004486 2.699982,-0.004486c0.899994,0 1.800018,0 2.700012,0c0.899994,0 1.700409,-0.027252 2.600006,0c0.944122,0.028595 1.180786,0.839111 1.820831,1.479156c0.640045,0.640045 1.353424,1.008392 1.836334,1.825348c0.37207,0.629456 0.919495,1.362122 1.342834,2.042816c0.569275,0.915344 1.188751,1.375122 1.779144,2.152679c0.560516,0.73822 0.623871,1.738647 1.322174,2.214661c0.749298,0.510773 1.300873,1.076141 1.698669,1.785339c0.497772,0.887421 0.859436,1.652344 1.216003,2.299988c0.475525,0.863678 1.169769,1.420532 1.284149,2.300018c0.090942,0.699249 0.475647,1.558472 0.974518,2.289337c0.507904,0.74408 0.995544,1.319061 1.023987,2.127991c0.037659,1.07132 -0.320892,1.940277 0.012024,2.872009c0.263306,0.736908 0.983978,1.221252 0.989319,2.110657c0.005402,0.899963 0,1.799988 0,2.701324c0,0.965332 0,1.624023 0,2.632019c0,0.862152 0,1.802643 0,2.650665c0,0.863312 0,1.75882 0,2.717316c0,0.965332 0,1.624023 0,2.632019c0,0.862152 0,1.708313 0,2.70932c0,0.708008 0,1.689331 0,2.643005c0,0.914337 0.173553,1.85257 -0.085327,2.614319c-0.301758,0.887939 -0.780212,1.609863 -0.919159,2.5c-0.127838,0.81897 -0.832062,1.468506 -0.984833,2.300018c-0.166504,0.906219 -0.3125,1.87677 -0.585358,2.574646c-0.364014,0.930969 -0.331573,1.838348 -0.482483,2.58252c-0.186859,0.921387 -0.706512,1.471741 -1.421997,2.221985c-0.560272,0.587494 -0.467865,1.555634 -0.873505,2.320831c-0.448364,0.845795 -1.154572,1.30899 -1.590179,2.05719c-0.425079,0.730133 -0.342133,1.702393 -0.704498,2.342834c-0.464417,0.82077 -1.022736,1.409485 -1.436676,2.101318c-0.475861,0.795349 -1.429718,1.06015 -1.915985,1.719513c-0.508728,0.689789 -1,1.479156 -1.600006,2.079163c-0.600006,0.600006 -1.161957,1.241394 -1.920837,1.899994c-0.616852,0.535339 -1.504608,0.959808 -2.3125,1.5c-0.668488,0.446991 -1.416107,0.797363 -2.266998,1.221497c-0.618927,0.308502 -1.443573,0.875275 -2.139648,1.178497c-0.908539,0.395782 -1.5336,1.075897 -2.045349,1.798676c-0.421661,0.595551 -1.377991,0.752319 -2.36734,1.158508c-0.718445,0.294952 -1.3974,0.940643 -2.145996,1.357483c-0.750885,0.418121 -1.593628,0.729553 -2.301331,1.385162c-0.593628,0.549957 -1.483276,0.523682 -2.37915,0.921021c-0.711029,0.315369 -1.308014,0.645172 -2.084839,1.015167c-0.739899,0.352417 -1.548645,0.74292 -2.266663,1.247986c-0.689819,0.485229 -1.426208,0.553253 -2.269348,0.937347c-0.779999,0.355347 -1.52002,0.608154 -2.399994,0.7995c-0.846313,0.184021 -1.604309,0.829285 -2.5,0.979156c-0.838196,0.140228 -1.289307,0.882813 -2.100006,1.000153c-0.905823,0.131104 -1.674255,0.515564 -2.37915,0.999847c-0.674255,0.463226 -1.418579,0.840576 -2.354187,1.166656c-0.730286,0.254517 -1.494629,0.845673 -2.171997,1.133331c-0.738373,0.313568 -1.861481,0.7854 -2.473816,1.200012c-0.85614,0.579712 -1.493225,1.052917 -2.354187,1.333344c-0.808197,0.263214 -1.710297,0.384644 -2.417328,0.59198c-0.745026,0.218475 -1.983612,0.387909 -2.749329,0.741333c-0.770996,0.355835 -1.514343,0.680939 -2.399994,0.844025c-0.831451,0.153107 -1.590454,0.878571 -2.399994,0.987976c-0.893799,0.120789 -1.626343,0.664215 -2.400024,0.916016c-0.85965,0.279785 -1.799988,0.085327 -2.599976,0.085327c-0.900024,0 -1.902588,-0.398193 -2.764008,0.036011c-0.698883,0.352264 -1.237335,0.963318 -2.071991,0.963989c-1.016693,0.000824 -1.711334,0 -2.728027,0c-0.935974,0 -1.859253,-0.096375 -2.802643,0.166656c-0.681671,0.190063 -1.324615,0.677704 -2.422668,0.822662c-0.803772,0.10611 -1.800018,0.021362 -2.410675,0.510681c-0.610657,0.489319 -1.5,0.5 -2.399994,0.5c-0.899994,0 -1.800018,0 -2.700012,0c-0.899994,0 -1.710388,-0.100403 -2.53598,0.036011c-0.871704,0.144043 -1.70929,0.617523 -2.606842,0.911316c-0.855255,0.279938 -1.525452,0.898132 -2.393158,1.041992c-0.83667,0.138702 -1.711334,0.010681 -2.717346,0.021362l-0.621338,0.414642" id="svg_13" stroke-width="5" stroke="#000000" fill="none"/>
 </g>
</svg>