<?xml version="1.0" encoding="UTF-8"?>
<svg width="640" height="480" xmlns="http://www.w3.org/2000/svg" xmlns:svg="http://www.w3.org/2000/svg">
 <!-- Created with SVG-edit - http://svg-edit.googlecode.com/ -->
 <g>
  <title>Layer 1</title>
  <path d="m204,286c0,-2.789337 0,-3.514679 0,-4.479156c0,-0.920837 0,-1.820831 0,-2.720856c0,-0.899994 0,-1.799988 0,-2.599976c0,-0.900024 0,-1.800018 0,-2.700012c0,-0.899994 -0.136566,-1.856628 0.283997,-2.700012c0.329926,-0.661621 0.703339,-1.500092 0.716003,-2.399994c0.012665,-0.900146 0.527176,-1.609436 0.878494,-2.5c0.260635,-0.660675 0.120773,-1.600006 0.121506,-2.53598c0.000671,-0.849335 -0.011154,-1.786621 0.283997,-2.762695c0.236954,-0.7836 0.653824,-1.573273 0.714676,-2.399994c0.066177,-0.898895 -0.163895,-1.820526 0.022156,-2.701324c0.178986,-0.847397 0.917023,-1.593369 0.977844,-2.38533c0.072784,-0.947876 0.001328,-1.716003 0.001328,-2.710175c0,-0.74733 0,-1.768494 0,-2.704498c0,-0.899994 0,-1.800171 0,-2.585327c0,-0.940002 0,-1.947998 0,-2.70401c0,-0.91066 0,-1.810654 0,-2.715164c0,-0.862167 0,-1.695496 0,-2.674164c0,-0.774002 0,-1.678497 0,-2.425827c0,-0.994171 0,-1.938339 0,-2.838333c0,-0.958511 -0.027191,-1.924835 0.010666,-2.59317c0.043488,-0.767731 0.370178,-1.748993 0.636673,-2.506836c0.354675,-1.008591 0.352661,-1.858505 0.352661,-2.823837c0,-0.833328 0,-1.811829 0,-2.631989c0,-0.837341 0,-1.686676 0,-2.605835c0,-0.995499 0,-1.795502 0,-2.795334c0,-0.779343 0,-1.778839 0,-2.552841c0,-0.904495 0,-1.651825 0,-2.645996c0,-0.944168 -0.132385,-1.890991 0.221329,-2.701508c0.313187,-0.717667 0.746124,-1.555664 0.77417,-2.304321c0.037216,-0.993484 0.004501,-1.938339 0.004501,-2.842834c0,-0.919342 0,-1.75267 0,-2.731339c0,-0.774002 0,-1.678497 0,-2.425827c0,-0.994171 -0.000626,-1.938339 0,-2.838333c0.000671,-0.957169 0.245499,-1.709122 0.647339,-2.457169c0.418976,-0.779953 0.352661,-1.783997 0.352661,-2.47467c0,-1.068161 0,-1.925507 0,-2.710663c0,-0.940002 0,-1.947998 0,-2.70401c0,-0.931488 0,-1.894653 0,-2.585327c0,-1.072662 -0.039215,-1.993774 0.010666,-2.661331c0.087509,-1.171143 0.378845,-1.751389 0.636673,-2.563995c0.312668,-0.985428 0.347321,-1.763962 0.352661,-2.842834c0.004242,-0.85733 0,-1.642502 0,-2.59317c0,-0.765335 -0.096481,-1.773575 0.057159,-2.506836c0.22467,-1.072266 0.839645,-1.815399 0.922012,-2.677994c0.093094,-0.97496 0.020828,-1.768509 0.020828,-2.493835c0,-0.964508 0,-1.88533 0,-2.785339c0,-0.899994 -0.183273,-1.854279 0.166672,-2.699997c0.324661,-0.784622 0.822906,-1.52066 0.833328,-2.485336c0.007828,-0.725281 -0.066498,-1.719131 0.020828,-2.493835c0.114182,-1.012833 0.779922,-1.670197 0.958344,-2.541656c0.193237,-0.943817 0.020828,-1.653839 0.020828,-2.722c0,-0.857178 -0.017212,-1.757355 0,-2.557175c0.018005,-0.836578 0.314392,-1.673889 0.574661,-2.41066c0.344666,-0.975693 0.414917,-1.768372 0.425339,-2.905334c0.007034,-0.767975 0,-1.709335 0,-2.400009c0,-1.073334 -0.14209,-1.996994 0.010666,-2.883987c0.143478,-0.833145 0.901428,-1.586319 0.984833,-2.300003c0.104462,-0.893936 0.002258,-1.800003 0.004501,-2.699997c0.002258,-0.900024 0.386078,-1.738358 0.716003,-2.400009c0.420547,-0.843361 0.278671,-1.800011 0.283997,-2.699997c0.005341,-0.900047 0.449738,-1.608582 0.833328,-2.5c0.306061,-0.711281 0.166672,-1.652664 0.166672,-2.515999c0,-0.963165 -0.062454,-1.914742 0.221329,-2.805336c0.222748,-0.69902 0.713669,-1.650208 0.77417,-2.374168c0.075317,-0.901367 0.004501,-1.804497 0.004501,-2.704498c0,-0.900002 -0.163712,-1.857292 0.221329,-2.699997c0.305801,-0.669304 0.773331,-1.499954 0.778671,-2.400002c0.005325,-0.899986 -0.136551,-1.856636 0.283997,-2.699997c0.329926,-0.661652 0.350739,-1.597755 0.751999,-2.364006c0.397125,-0.758354 0.936142,-1.237762 0.964005,-2.135994c0.029297,-0.944107 0.87146,-1.459938 1,-2.300003c0.121689,-0.795288 0.552475,-1.474228 0.97467,-2.400002c0.356094,-0.78083 0.82637,-1.400284 1.52533,-2.099998c0.599594,-0.600243 1.108093,-1.215569 1.52533,-2.099998c0.379639,-0.804726 1.354385,-1.082535 1.890671,-1.685333c0.578217,-0.649925 1.023361,-1.195061 1.726837,-1.767334c0.617981,-0.502731 1.331284,-1.154938 1.957169,-1.522003c0.771515,-0.452477 1.706879,-0.775093 2.399994,-1.425331c0.505066,-0.473816 1.316818,-0.921181 2,-1.5c0.59404,-0.503304 1.051514,-1.319153 1.801331,-1.498665c0.892227,-0.213608 1.423141,-0.859962 2.298676,-1.001503c0.903534,-0.146065 1.487228,-0.601128 2.299988,-0.974503c0.887039,-0.407501 1.636902,-0.762207 2.400009,-1.109329c0.854263,-0.388588 1.580261,-0.901398 2.199997,-1.416c0.602051,-0.499908 1.513,-0.35791 2.399994,-0.510666c0.833145,-0.143478 1.592163,-0.866623 2.400009,-0.987999c0.908554,-0.136513 1.354309,-0.917595 2.199997,-1.001335c0.796082,-0.078827 1.700073,0.010414 2.600006,0c0.900177,-0.010422 1.603271,-0.543198 2.5,-0.878502c0.850647,-0.318077 1.699982,-0.121498 2.600006,-0.121498c0.899994,0 1.799988,0 2.710663,0c0.910645,0 1.763977,0 2.703979,0c0.885345,0 1.685333,0 2.585358,0c0.899994,0 1.834717,0.052856 2.599976,-0.352669c0.846039,-0.448326 1.585358,-0.64666 2.52536,-0.647331c0.690643,-0.000488 1.763977,0 2.695496,0c0.800476,0 1.653809,0 2.595154,0c1.050659,0 1.720001,0 2.485321,0c0.994171,0 1.913361,0 2.877838,0c0.920837,0 1.825348,0 2.6875,0c0.854187,0 1.833344,0 2.622681,0c0.725342,0 1.835999,0 2.694672,0c0.863312,0 1.75882,0 2.716003,0c0.899994,0 1.799988,0 2.599976,0c0.900024,0 1.800018,0 2.720856,0c0.800476,0 1.653809,0 2.595154,0c1.050659,0 1.709351,0 2.717346,0c0.862152,0 1.766663,0 2.666656,0c0.899994,0 1.799988,0 2.700012,0c0.899994,0 1.799988,0 2.557159,0c0.895508,0 1.75882,0 2.721985,0c0.931519,0 1.842163,0 2.520844,0c1.114655,0 2,0 2.799988,0c0.900024,0 1.800018,0 2.700012,0c0.899994,0 1.799988,-0.000084 2.700012,0c0.899994,0.000084 1.772156,0.21096 2.399994,0.574669c0.769836,0.445969 1.728027,0.339569 2.721313,0.646667c0.700928,0.216713 1.501038,0.685463 2.304016,0.767998c1.022003,0.105057 1.77594,-0.303909 2.727997,0.021332c0.767395,0.262161 1.273926,0.983452 2.046661,1.414665c0.818939,0.456985 1.754272,0.391396 2.600006,0.741333c0.784637,0.324661 1.42514,0.889999 2.02533,1.408005c0.628723,0.542641 1.437714,0.998993 2.274658,1.372665c0.772186,0.344757 1.471832,0.885033 2.400024,1.048164c0.851868,0.149719 1.359467,0.640373 2.101318,1.088501c0.705292,0.426048 1.31781,1.227364 1.998657,1.630669c0.827179,0.489967 1.723602,0.745743 2.495514,1.232666c0.702423,0.4431 1.287048,0.740273 2.093842,1.063332c0.789124,0.315987 1.23819,0.982986 2.010651,1.414665c0.819244,0.457825 1.72406,0.767738 2.300018,1.279167c0.732269,0.650215 1.404297,1.14563 2.299988,1.295502c0.838196,0.140251 1.331116,0.81427 2.100006,1.221336c0.757507,0.401039 1.3461,1.017464 1.984009,1.494667c0.767914,0.574448 1.645447,0.500153 2.082642,1.283997c0.363586,0.651871 1.229736,1.232964 1.666687,2c0.444244,0.779861 1.200134,1.124687 1.766663,1.610664c0.743256,0.637566 0.985809,1.538452 1.56665,2.222672c0.565613,0.666267 0.833344,1.266663 0.833344,2.166664c0,0.800003 0.417694,1.554382 0.87851,2.221497c0.504059,0.729698 0.12149,1.778503 0.12149,2.578506c0,0.899994 0,1.799995 0,2.699997c0,0.900002 -0.000061,1.800003 0,2.699997c0.000092,0.900002 0.220581,1.76667 0.574677,2.400002c0.481506,0.861252 0.425323,1.800003 0.425323,2.700005c0,0.899994 0,1.799995 0,2.699997c0,0.800003 -0.183716,1.726494 0.036011,2.599998c0.217041,0.862823 0.921265,1.596596 0.963989,2.400002c0.04248,0.798874 0,1.699997 0,2.599998c0,0.900002 0.000671,1.799995 0,2.700005c-0.000671,0.898666 -0.344147,1.657471 -1,2.199997c-0.602966,0.498779 -1.69931,0.386734 -1.989319,1.110672c-0.354919,0.886017 -0.629791,1.459198 -1.094696,2.190659c-0.497162,0.782196 -1.296265,1.184067 -1.915985,1.698669c-0.60202,0.499908 -1.40625,0.596359 -2.052673,1.147339c-0.604401,0.515152 -1.455139,0.961304 -1.890167,1.709824c-0.424469,0.730377 0.187103,1.875 -0.341156,2.558838c-0.484711,0.627487 -0.716003,1.384003 -0.716003,2.283997c0,0.900009 0,1.800003 0,2.600006c0,0.899994 0,1.800003 0,2.699997c0,0.899994 0,1.800003 0,2.699997c0,0.900009 -0.027069,1.800461 0,2.600006c0.028595,0.844284 0.706299,1.42955 1.166656,2.199997c0.429932,0.719498 1.333191,0.987335 2.233337,1c0.899902,0.012665 1.72406,0.193069 2.300018,0.704498c0.732269,0.650208 1.55365,1.084518 2.399994,1.51683c0.655334,0.334732 1.371704,0.889175 1.952667,1.42601c0.688629,0.636337 1.27887,1.166077 2.047333,1.57399c0.649963,0.345016 1.580505,0.430634 2.37915,0.7995c0.771118,0.35614 1.348267,0.567978 2.163666,1.036331c0.811981,0.466385 1.328918,1.154541 1.957184,1.517502c0.845642,0.488556 1.538361,0.874695 2.115997,1.509338c0.588562,0.646652 1.242279,1.149948 1.984009,1.563339c0.763672,0.425629 1.624054,0.68454 2.299988,1.352661c0.585663,0.578888 0.985413,1.380249 1.5,2c0.499908,0.602036 0.447083,1.534744 0.852661,2.300003c0.448303,0.845901 0.610138,1.700867 0.647339,2.5c0.042725,0.917633 0.939117,1.415222 1,2.300003c0.061798,0.897873 0,1.699997 0,2.599991c0,0.900009 0,1.800003 0,2.699997c0,0.900009 0,1.800003 0,2.700012c0,0.899994 0,1.699997 0,2.599991c0,0.900009 0,1.800003 0,2.699997c0,0.900009 0,1.800003 0,2.700012c0,0.899994 -0.095612,1.694016 -0.5,2.399994c-0.454498,0.793442 -0.357269,1.785126 -0.852661,2.447327c-0.518066,0.692505 -0.907715,1.499054 -1.747345,1.931335c-0.64856,0.333908 -1.481964,0.734314 -2.299988,1.096008c-0.784485,0.346848 -1.587402,0.940292 -2.399994,1.024002c-0.895294,0.092224 -1.819611,-0.00061 -2.600006,0.426666c-0.822571,0.450378 -1.734039,0.428162 -2.399994,0.659988c-0.885681,0.308319 -1.532227,0.956375 -2.225342,1.489334c-0.633392,0.48703 -1.646637,0.097229 -2.453827,0.446167c-0.713989,0.30864 -1.225525,0.960205 -2.12085,0.979172c-0.964447,0.020432 -1.454651,0.643967 -2.201324,1.084c-0.700531,0.412842 -1.53006,0.816025 -2.17334,1.341339c-0.677216,0.553024 -1.40094,1.04007 -2.125153,1.453323c-0.791992,0.451935 -1.093262,1.245377 -1.604675,1.821335c-0.650238,0.732269 -1.060272,1.599228 -1.579498,2.216003c-0.556763,0.661392 -1.124878,1.211288 -1.549347,2.084c-0.320831,0.659668 -0.627075,1.523605 -1.113983,2.295502c-0.443085,0.702438 -1.047333,1.315125 -1.052673,2.204498c-0.005402,0.899979 0,1.800003 0,2.699997c0,0.900009 0.337097,1.948898 -0.166656,2.633331c-0.480621,0.653015 -0.833344,1.266678 -0.833344,2.166672c0,0.800003 0,1.699997 0,2.600006c0,0.899994 0,1.799988 0,2.699997c0,0.899994 0,1.800003 0,2.699997c0,0.800003 0,1.699997 0,2.600006c0,0.899994 0,1.799988 0,2.699997c0,0.899994 0,1.800003 0,2.699997c0,0.800003 0,1.699997 0,2.600006c0,0.899994 0,1.799988 0,2.699997c0,0.899994 0,1.800003 0,2.699997c0,0.800003 0,1.700012 0,2.600006c0,0.899994 0,1.799988 0,2.699982c0,0.900024 0,1.800018 0,2.700012c0,0.799988 0.010681,1.700073 0,2.600006c-0.010437,0.879333 -0.790771,1.400879 -0.998657,2.201324c-0.212036,0.816437 -0.613617,1.555389 -1.286682,2.114655c-0.669159,0.55603 -1.538849,0.524536 -2.278656,1.109344c-0.678223,0.536133 -1.27182,0.778381 -2.136017,1.03183c-0.877411,0.257324 -1.598602,0.914246 -2.5,0.942841c-0.899536,0.028534 -1.799988,0 -2.599976,0c-0.900024,0 -1.809418,0.016998 -2.610687,0.425323c-0.765411,0.390076 -1.589172,0.56424 -2.568329,0.574677c-0.718292,0.00766 -1.785156,0 -2.707672,0c-0.673309,0 -1.346649,0 -2.542664,0c-0.949341,0 -1.97049,0 -2.749817,0c-0.854187,0 -1.716339,0 -2.62085,0c-0.899994,0 -1.799988,0 -2.699982,0c-0.900024,0 -1.800018,0 -2.700012,0c-0.799988,0 -1.757172,0 -2.657166,0c-0.747345,0 -1.741516,0 -2.506836,0c-1.083344,0 -2.002655,0 -2.671997,0c-1.164001,0 -1.953339,0 -2.67868,0c-0.964478,0 -1.895996,0 -2.806641,0c-0.853333,0 -1.793335,0 -2.67868,0c-0.799988,0 -1.700012,0 -2.600006,0c-0.899994,0 -1.799988,0 -2.699982,0c-0.900024,0 -1.800018,0 -2.700012,0c-0.799988,0 -1.700012,0 -2.600006,0c-0.899994,0 -1.810669,0 -2.721313,0c-0.853333,0 -1.793335,0 -2.67868,0c-0.799988,0 -1.700012,0 -2.600006,0c-0.899994,0 -1.810669,0 -2.721313,0c-0.853333,0 -1.796021,0 -2.488525,0c-0.95816,0 -1.939484,0 -2.856812,0c-0.791687,0 -1.733337,0 -2.633331,0c-0.900024,0 -1.800171,0 -2.585358,0c-0.940002,0 -1.947998,0 -2.73999,0c-0.858673,0 -1.721985,0 -2.617493,0c-0.957184,0 -1.857819,-0.033905 -2.757172,0c-0.758789,0.028595 -1.638519,0.38855 -2.347321,0.647339c-1.009827,0.368713 -1.973999,0.352661 -2.652679,0.352661c-0.978485,0 -2.000397,-0.02536 -2.799988,0c-0.901398,0.028595 -1.550385,0.517334 -2.400024,0.915985c-0.860443,0.403717 -1.501129,0.787384 -2.199982,1.484009c-0.600983,0.59903 -1.200012,1.200012 -1.899994,1.899994c-0.5,0.5 -1.22644,1.174591 -1.898682,1.900024c-0.537872,0.580444 -0.991699,1.28537 -1.517334,1.884003c-0.673553,0.76712 -0.885284,1.503235 -1.258667,2.315979c-0.407501,0.887024 -0.610413,1.749725 -1.191986,2.43335c-0.566589,0.666016 -1.187042,1.112762 -1.833344,1.666656c-0.611649,0.5242 -1.381729,0.95639 -2.198669,1.415985c-0.702652,0.395294 -1.27533,0.977753 -2.001328,1.368011c-0.854797,0.459473 -1.618393,0.771027 -2.320831,1.236847c-0.823441,0.546082 -1.504623,0.938995 -2.3125,1.479156c-0.668518,0.446991 -1.513733,0.836426 -2.266678,1.221344c-0.763184,0.390167 -1.518204,0.76947 -2.299988,1.203979c-0.819321,0.455353 -1.339096,1.182526 -2.036011,1.538666c-0.859406,0.439178 -1.71199,0.403412 -2.363998,0.752014c-0.847382,0.453064 -1.663055,0.857635 -2.5,1.231323c-0.772156,0.344757 -1.468613,0.90451 -2.399994,1.048187c-0.889496,0.137207 -1.800003,0.004486 -2.699997,0.004486c-0.900009,0 -1.801651,-0.054382 -2.700012,0.000153c-0.703857,0.042725 -1.43718,0.746796 -2.299988,0.963837c-0.87352,0.219757 -1.800003,0.036011 -2.700012,0.036011c-0.899994,0 -1.699997,0 -2.599991,0c-0.900009,0 -1.800003,0 -2.699997,0c-0.900009,0 -1.800003,0 -2.700012,0c-0.899994,0 -1.700409,0.027252 -2.599991,0c-0.944138,-0.028595 -1.370575,-0.763641 -2.300003,-1c-0.823624,-0.209442 -1.545944,-0.670746 -1.942841,-1.357178c-0.422836,-0.731323 -0.057159,-1.742828 -0.057159,-2.642822c0,-0.799988 0.411209,-1.822571 -0.057159,-2.642822c-0.464325,-0.813171 -0.925629,-1.357361 -0.942841,-2.157166c-0.018005,-0.836578 -0.318649,-1.670227 -0.647339,-2.547333c-0.330917,-0.883026 -0.352661,-1.752686 -0.352661,-2.652679c0,-0.799988 0,-1.700012 0,-2.600006l0,-0.899994l0,-0.899994" id="svg_11" stroke-width="5" stroke="#000000" fill="none"/>
 </g>
</svg>