<?xml version="1.0" encoding="UTF-8"?>
<svg width="640" height="480" xmlns="http://www.w3.org/2000/svg" xmlns:svg="http://www.w3.org/2000/svg">
 <!-- Created with SVG-edit - http://svg-edit.googlecode.com/ -->
 <g>
  <title>Layer 1</title>
  <path d="m285,302c-1.700012,0 -2.623474,0.184357 -3.5,-0.020844c-0.955627,-0.223724 -1.108093,-1.284546 -1.785339,-1.895142c-0.646088,-0.582489 -1.195068,-1.023376 -1.767334,-1.726837c-0.502747,-0.617981 -1.264954,-1.10376 -1.863312,-1.641174c-0.638458,-0.573425 -1.195892,-1.195374 -1.731354,-1.768677c-0.640015,-0.685211 -1.122345,-1.252869 -1.705322,-1.894653c-0.526245,-0.579315 -0.534698,-1.571167 -1.168182,-2.052673c-0.680878,-0.517517 -1.803741,-0.636353 -2.3125,-1.333344c-0.405121,-0.555054 -0.514771,-1.561707 -1.166656,-2.166656c-0.570709,-0.529633 -1.266754,-1.000641 -1.833344,-1.666656c-0.581573,-0.683624 -0.968506,-1.314789 -1.645813,-1.833344c-0.631805,-0.483734 -0.656708,-1.460297 -1.168182,-2.052673c-0.566406,-0.656006 -0.742706,-1.515411 -1.327332,-2.33667c-0.466187,-0.654877 -1.667419,-0.428284 -2.004486,-1.1315c-0.375641,-0.783691 -0.500214,-1.591034 -1.073517,-2.126495c-0.685211,-0.640015 -0.624786,-1.491058 -1.113983,-2.186005c-0.503326,-0.715027 -1.195465,-1.103088 -1.833344,-1.666656c-0.583481,-0.515503 -0.815033,-1.231232 -1.035995,-2.100006c-0.219315,-0.862244 -0.727753,-1.667053 -1.185501,-2.5c-0.370972,-0.675049 -1.234879,-1.122986 -1.611832,-2.06665c-0.307678,-0.770233 -0.608261,-1.5112 -1.113998,-2.190521c-0.541977,-0.727997 -0.497559,-1.60675 -1.136673,-2.357483c-0.567276,-0.666321 -0.852097,-1.287903 -0.916,-2.085327c-0.083603,-1.043365 -0.773666,-1.470093 -1.221329,-2.300018c-0.349335,-0.647644 -0.60817,-1.520004 -0.7995,-2.399994c-0.184006,-0.846329 -0.561554,-1.661499 -1.2005,-2.378662c-0.535919,-0.601517 -0.947296,-1.287262 -1.20401,-1.957336c-0.292892,-0.764481 -0.483459,-1.770035 -0.627335,-2.563995c-0.1828,-1.008682 -0.641876,-1.729324 -0.862,-2.714676c-0.193909,-0.868042 -0.085327,-1.642502 -0.085327,-2.537994c0,-0.863342 0.145493,-1.839783 -0.010666,-2.74733c-0.143372,-0.83316 -0.904297,-1.587402 -0.988007,-2.400009c-0.092209,-0.895264 -0.001328,-1.800003 -0.001328,-2.699997c0,-0.91066 0,-1.821335 0,-2.5c0,-1.11467 0.168167,-2.036438 -0.085327,-2.800003c-0.256348,-0.772171 -0.886078,-1.503296 -0.914673,-2.521332c-0.019058,-0.678391 0,-1.657333 0,-2.562668c0,-0.94133 0,-1.632004 0,-2.595169c0,-0.931488 0.091599,-1.850998 -0.035995,-2.695496c-0.145233,-0.961258 -0.809494,-1.592331 -0.953339,-2.461334c-0.138504,-0.83667 -0.010666,-1.711334 -0.010666,-2.727997c0,-0.837341 0,-1.802673 0,-2.636002c0,-0.9785 0,-1.695496 0,-2.600006c0,-0.899994 0.094009,-1.847092 -0.352661,-2.699997c-0.393951,-0.752228 -0.646667,-1.5 -0.647339,-2.399994c-0.000671,-0.900009 0,-1.800003 0,-2.699997c0,-0.900009 0,-1.800003 0,-2.70018c0,-0.785156 0,-1.725159 0,-2.733154c0,-0.756012 0,-1.666672 0,-2.566666c0,-0.900009 0,-1.800003 0,-2.700012c0,-0.899994 0,-1.699997 0,-2.599991c0,-0.900009 0,-1.800003 0,-2.699997c0,-0.900009 0,-1.800003 0,-2.700012c0,-0.899994 0,-1.699997 0,-2.599991c0,-0.900009 -0.052902,-1.834747 0.352661,-2.600006c0.448303,-0.845886 0.621979,-1.700394 0.647339,-2.5c0.028595,-0.901352 0.685547,-1.622559 0.942841,-2.5c0.253769,-0.865448 0.292145,-1.6577 0.704498,-2.399994c0.457962,-0.824402 1.143463,-1.300888 1.351334,-2.101334c0.212036,-0.816452 0.952026,-1.114426 1.565323,-1.809341c0.58876,-0.667114 0.744659,-1.573685 1.237335,-2.274658c0.524063,-0.745621 0.927185,-1.373871 1.677841,-2.093842c0.542313,-0.520142 0.886337,-1.52417 1.620834,-1.89949c0.841461,-0.429977 1.495468,-0.705734 2.399994,-1.121338c0.796097,-0.365784 1.424606,-1.09288 2.100006,-1.563995c0.733582,-0.511703 1.699997,-0.435913 2.600006,-0.436005c0.899811,-0.000092 1.40863,-0.507813 2.157166,-0.942841c0.730377,-0.424469 1.742828,-0.057159 2.642822,-0.057159c0.799988,0 1.700012,0 2.600006,0c0.920837,0 1.884003,0 2.574646,0c1.068176,0 1.925354,0 2.825348,0c0.799988,0 1.708008,0 2.764008,0c0.593994,0 1.559998,0 2.18399,0c1.180511,0 2.152008,0 3.052002,0c0.799988,0 1.700012,0 2.600006,0c0.899994,0 1.810669,0 2.721313,0c0.853333,0 1.810059,-0.089127 2.562683,0.085327c0.975006,0.226013 1.607971,0.744186 2.595154,0.893845c0.91098,0.138107 1.664429,0.413879 2.406189,0.736832c0.891357,0.388077 1.7435,-0.152008 2.667999,0.319992c0.76825,0.392212 1.448822,0.47139 2.161316,1.049332c0.74411,0.603592 0.568329,1.585861 1.164001,2.136002c0.636963,0.588257 1.103333,1.214172 1.121338,2.178665c0.016815,0.899857 0,1.800003 0,2.700012c0,0.899994 0,1.699997 0,2.599991c0,0.900009 0,1.800003 0,2.699997c0,0.900009 0.054382,1.801651 -0.000153,2.700012c-0.042725,0.703857 -0.653473,1.460419 -1.295349,2.199997c-0.578613,0.666687 -0.664825,1.461746 -1.225342,2.199997c-0.589203,0.776062 -0.960419,1.437073 -1.53183,2.142838c-0.591583,0.730667 -0.570526,1.53714 -1.113983,2.190491c-0.573975,0.690033 -1.326263,0.959869 -1.833344,1.645844c-0.487,0.658813 -1.392303,0.965042 -2.100006,1.620667c-0.593628,0.549957 -1.432098,0.834854 -2.199982,1.252823c-0.84082,0.457657 -1.30899,1.154572 -2.05719,1.590179c-0.730133,0.425095 -1.693665,0.358002 -2.342834,0.704498c-0.849365,0.453354 -1.849701,0.273224 -2.604492,0.709824c-0.632935,0.366119 -1.326263,1.001984 -2.100006,1.285675c-0.969177,0.355362 -1.814972,0.301071 -2.795502,0.578659c-0.821869,0.232666 -1.388092,0.60466 -2.399994,1.074005c-0.791168,0.366974 -1.802277,0.604904 -2.600006,0.729828c-0.802582,0.125687 -1.583832,0.448975 -2.399994,0.690674c-0.984161,0.291443 -1.815399,0.277985 -2.799988,0.567993c-0.611725,0.180176 -1.593658,0.596985 -2.399994,0.680008c-0.79657,0.082031 -1.817169,-0.09285 -2.714691,0.121323c-0.889893,0.212357 -1.682831,0.870789 -2.370667,0.913345c-0.948837,0.058701 -1.715988,0.001328 -2.714661,0.001328c-0.799988,0 -1.804367,-0.054535 -2.599991,0.035995c-1.010345,0.11496 -1.746338,0.565811 -2.778503,0.842499c-0.701706,0.188095 -1.657501,0.121506 -2.505493,0.121506c-0.863342,0 -1.880005,0 -2.716003,0c-0.90033,0 -1.770676,0 -2.568008,0c-0.981323,0 -1.898666,0 -2.690323,0c-0.941666,0 -1.848206,0.106964 -2.741669,-0.001328c-0.919785,-0.111481 -1.456223,-0.797623 -2.400009,-0.988007c-0.882767,-0.178085 -1.703735,-0.36377 -2.399994,-1.010666c-0.603271,-0.560501 -1.381989,-0.983322 -2,-1.5c-0.639206,-0.534393 -1.527206,-0.713745 -2.174667,-1.146667c-0.872391,-0.583313 -1.271713,-1.374756 -1.825333,-2.186661c-0.453049,-0.664429 -0.81311,-1.526138 -1.221497,-2.266678c-0.371964,-0.674484 -1.187302,-1.291321 -1.778503,-1.899994c-0.609207,-0.627197 -1.189224,-1.490341 -1.600006,-2.174667c-0.487167,-0.811569 -1.141159,-1.349258 -1.363998,-2.225327c-0.223145,-0.877289 0.037613,-1.77179 -0.056824,-2.600006c-0.113174,-0.992569 -0.681122,-1.585358 -0.893845,-2.485336c-0.21225,-0.897964 -0.084793,-1.91333 -0.085327,-2.678665c-0.000671,-0.951996 -0.075867,-1.723434 -0.425339,-2.671997c-0.28302,-0.768188 -0.541946,-1.758179 -0.57016,-2.506836c-0.034058,-0.90387 -0.004501,-1.823837 -0.004501,-2.677994c0,-0.979172 0,-1.779175 0,-2.579178c0,-0.995499 0.107376,-1.749542 -0.010666,-2.774658c-0.110947,-0.963455 -0.600861,-1.589218 -0.867828,-2.603836c-0.210922,-0.801636 -0.121506,-1.657501 -0.121506,-2.674164c0,-0.694672 0,-1.722 0,-2.668839c0,-0.699326 0,-1.678497 0,-2.467834c0,-1.043991 0,-1.906158 0,-2.731491c0,-0.964508 0,-1.689835 0,-2.679001c0,-0.779343 -0.038467,-1.779404 0,-2.800171c0.028595,-0.758789 0.382065,-1.640915 0.647339,-2.347336c0.333008,-0.886795 0.279037,-1.824448 0.373489,-2.652664c0.113174,-0.992401 0.779922,-1.649368 0.958344,-2.520828c0.193237,-0.943817 -0.108871,-1.662292 0.02533,-2.722c0.111099,-0.877335 0.725723,-1.490845 0.942825,-2.414337c0.172714,-0.734695 0.28569,-1.765923 0.663345,-2.506836c0.431473,-0.846481 0.965485,-1.419609 1.389328,-2.335999c0.367783,-0.795181 1.000244,-1.499763 1.5,-2c0.700333,-0.700996 1.230728,-1.23732 1.800003,-2.152664c0.42334,-0.680695 0.877441,-1.482208 1.399994,-2.042839c0.682281,-0.732018 1.46254,-1.311378 2.125336,-1.704498c0.686478,-0.407173 1.538666,-1 2.174667,-1.599998c0.636002,-0.599998 1.330383,-1.085739 2.020828,-1.520836c0.992371,-0.625359 1.582565,-1.137604 2.215164,-1.689835c0.448547,-0.391571 1.444046,-1.191597 1.978668,-1.578659c0.771759,-0.558731 1.661392,-1.167137 2.243668,-1.689835c0.664505,-0.596512 1.151306,-1.15995 2.025665,-1.720833c0.671799,-0.430946 1.518112,-0.872475 2.105347,-1.400002c0.742065,-0.666626 1.336502,-1.491127 2.010666,-1.964005c0.743958,-0.521843 1.756683,-0.589294 2.379166,-0.956833c0.835098,-0.49308 1.283813,-1.263977 2.020828,-1.645828c0.753952,-0.390625 1.567825,-0.709366 2.300003,-1.190506c0.794235,-0.521927 1.284851,-1.237785 2.099991,-1.6175c0.884872,-0.412201 1.605408,-0.840797 2.357178,-1.077995c0.897949,-0.283325 1.642365,-0.568947 2.221985,-1.447334c0.487244,-0.73838 0.978271,-1.295303 2.026184,-1.442833c0.738159,-0.10392 1.686981,0.124725 2.573334,-0.09317c0.882629,-0.216988 1.660919,-0.777649 2.421326,-1.130661c0.813477,-0.377647 1.664734,-0.719589 2.347321,-0.886002c0.918945,-0.224037 1.567902,-1.060677 2.288666,-1.511337c0.778076,-0.486511 1.547699,-0.300972 2.606842,-0.440498c0.876617,-0.115479 1.441498,-0.684258 2.393158,-1.020828c0.835846,-0.295616 1.50351,-0.669662 2.478668,-0.889336c0.867706,-0.195473 1.719757,0.110619 2.585358,-0.142502c0.877625,-0.256645 1.603485,-0.903709 2.466644,-0.942833c0.853577,-0.038689 1.842102,-0.141357 2.622681,-0.425331c0.734344,-0.267143 1.689636,-0.564247 2.610657,-0.574669c0.904449,-0.010231 1.771759,0.073608 2.600006,-0.020836c0.992554,-0.113182 1.585907,-0.678619 2.484009,-0.893829c0.843231,-0.202057 1.763397,-0.073845 2.682648,-0.085335c0.833527,-0.010422 1.779633,-0.280884 2.528839,-0.647331c0.816467,-0.399353 1.847168,-0.352669 2.555176,-0.352669c0.743988,0 1.778656,0 2.749329,0c0.799988,0 1.758453,0.043587 2.648163,-0.004501c0.785522,-0.042458 1.414459,-0.780472 2.234497,-0.959496c0.787537,-0.171928 1.800018,-0.036003 2.596497,-0.036003c0.751495,0 1.870178,0 2.854187,0c0.671997,0 1.661316,0 2.695984,0c0.768005,0 1.606659,0 2.623352,0c0.694641,0 1.732666,0 2.680664,0c0.681,0 1.487976,0 2.666656,0c0.890991,0 1.727997,0 2.666656,0c0.791687,0 1.733337,0 2.633331,0c0.900024,0 1.800171,0 2.585358,0c0.940002,0 1.947998,0 2.703979,0c0.910675,0 1.832001,0 2.744019,0c0.671997,0 1.661316,0 2.697327,0c0.717499,0 1.642548,-0.11853 2.485321,0.085335c0.888031,0.214806 1.682526,0.871956 2.650665,0.914665c0.668701,0.029495 1.833344,0 2.633331,0c0.800018,0 1.795502,-0.001869 2.542847,0c0.899994,0.002251 1.798004,0.381157 2.457153,0.716003c0.78418,0.398354 1.852692,0.280312 2.547333,0.283997c1.006042,0.005333 1.585083,0.685089 2.362518,0.942833c0.768311,0.254723 1.790771,0.023926 2.772827,0.058502c0.808929,0.028481 1.411804,0.629341 2.164001,1.023994c0.776062,0.407173 1.49176,0.674393 2.467987,0.889336c0.965912,0.212677 2.023438,-0.23674 2.718689,0.251999c0.715912,0.503258 1.223572,1.123039 1.866669,1.480667c0.853119,0.474411 1.65509,0.904327 2.466644,1.186005c0.799225,0.277397 1.952484,-0.165352 2.666687,0.333328c0.718079,0.501373 1.342102,0.979118 2.002655,1.269333c0.776428,0.341118 1.546814,0.797943 2.328003,1.128006c0.934967,0.395035 1.744598,0.460182 2.661346,0.871994c0.712708,0.320152 1.46814,1.081253 2.274811,1.442673c0.740662,0.331833 1.580475,0.427925 2.415833,0.922661c0.75946,0.449783 1.649078,1.039635 2.309357,1.17334c1.005707,0.203644 1.638947,0.562317 2.374664,1.223999c0.588379,0.529175 1.499054,0.855713 2.299988,1.301331c0.799042,0.44455 1.757294,0.326523 2.5,0.666664c0.802612,0.367569 1.236725,1.227348 2.100006,1.712166c0.660797,0.371101 1.249146,1.050423 1.870667,1.638504c0.723083,0.684189 1.518097,0.975899 2.261322,1.195999c0.941559,0.278831 1.894043,0.477516 2.468018,0.991165c0.735321,0.658028 1.215515,1.408363 1.935974,1.859505c0.778198,0.487305 1.777222,0.33889 2.606842,0.793167c0.624084,0.341721 1.23175,1.169258 1.957184,1.841499c0.580444,0.53788 1.424377,0.611717 2.299988,0.822166c0.954285,0.229362 1.108093,1.284546 1.785339,1.895164c0.646332,0.582756 1.472931,0.844543 2.03598,1.405334c0.680023,0.677315 1.153931,1.238113 1.921509,1.917c0.721313,0.637985 1.607178,0.774239 2.257172,1.282501c0.769073,0.601364 1.246674,1.195053 2.148163,1.779167c0.634796,0.411316 1.184601,1.211723 1.872681,1.699997c0.697479,0.494942 1.708923,0.670944 2.357819,1.221336c0.661224,0.560837 0.976837,1.27478 1.406677,1.978661c0.412445,0.675385 1.236969,1.243179 2.010162,1.747337c0.700867,0.457001 1.166443,1.289055 1.537842,2.052666c0.366699,0.753906 0.779633,1.58197 1.141327,2.399994c0.346832,0.78447 0.787781,1.626297 1.078003,2.300003c0.36261,0.841797 0.811829,1.608551 0.948669,2.5c0.140594,0.915787 0.808502,1.454086 0.987976,2.400009c0.167755,0.884277 0.011353,1.799988 0.010681,2.699997c-0.000671,0.898666 -0.385071,1.60788 -0.97467,2.125336c-0.637756,0.559708 -0.944855,1.250137 -1.461334,1.974655c-0.559998,0.785553 -1.009399,1.41803 -1.589325,2.164001c-0.485504,0.624496 -1.075134,1.227798 -1.47467,1.936005c-0.495331,0.877991 -0.946594,1.553802 -1.52533,2.074661c-0.637878,0.574081 -1.091766,1.20726 -1.549347,2.025345c-0.431946,0.772293 -0.839844,1.48407 -1.477997,2.047333c-0.595398,0.525528 -1.072906,1.385345 -1.557983,1.952667c-0.638428,0.746704 -1.112823,1.289001 -1.889343,1.879166c-0.737976,0.560852 -1.546814,0.827698 -2.299988,1.236832c-0.797516,0.433228 -1.359955,1.155457 -2.200012,1.283997c-0.795258,0.121689 -1.491089,0.564346 -2.321503,1.100006c-0.677002,0.436722 -1.674774,0.907639 -2.273987,1.195496c-0.742828,0.356857 -1.80545,0.593338 -2.605835,0.988495c-0.725433,0.358139 -1.450378,0.676804 -2.314667,0.714676c-0.962494,0.042175 -1.720398,0.504608 -2.650665,0.834656c-0.797302,0.282867 -1.66687,0.149521 -2.528839,0.166672c-0.90506,0.018005 -1.614838,0.618134 -2.504517,0.914673c-0.857788,0.285904 -1.688477,0.01857 -2.625336,0.095993c-1.016541,0.084 -1.578827,0.673935 -2.479156,0.932175c-0.830566,0.23822 -1.716339,0.057159 -2.695496,0.057159c-0.789337,0 -1.843048,-0.092728 -2.625336,0.035995c-0.883148,0.145325 -1.563141,0.623505 -2.574493,0.842499c-0.768005,0.166306 -1.778656,0.121506 -2.598846,0.121506c-0.901337,0 -1.801331,0 -2.612,0c-0.910645,0 -1.763977,0 -2.703979,0c-0.985352,0 -1.885529,0.017212 -2.685333,0c-0.836578,-0.018005 -1.76355,-0.156998 -2.490173,-0.704498c-0.753265,-0.567566 -1.220062,-1.286255 -1.771179,-1.906174c-0.516357,-0.580826 -1.241913,-1.081406 -1.877319,-1.778656c-0.569122,-0.624512 -0.924316,-1.339417 -1.145355,-2.128006c-0.249054,-0.888535 -0.837341,-1.799011 -0.895142,-2.482666c-0.082458,-0.975418 -0.040497,-1.765869 -0.373505,-2.652664c-0.265259,-0.706421 -0.629333,-1.710815 -0.647339,-2.647339c-0.017334,-0.901169 0,-1.866669 0,-2.52533c0,-1.007996 0,-1.870163 0,-2.774673c0,-0.920822 0,-1.721497 0,-2.610657c0,-0.989334 0,-1.789337 0,-2.789337c0,-0.789337 -0.012299,-1.51474 0,-2.58934c0.010437,-0.910843 0.476501,-1.641785 0.878662,-2.510666c0.306427,-0.662018 0.596832,-1.558685 1.096008,-2.289322c0.462189,-0.676468 1.28421,-1.031906 2.125153,-1.489334c0.747528,-0.406616 1.088837,-1.249329 1.604675,-1.821335c0.655792,-0.727203 1.454468,-1.035858 2.295502,-1.466675c0.664337,-0.340302 1.292603,-1.140808 2,-1.833328c0.494873,-0.484451 1.308533,-0.864471 2.200012,-1.001328c0.915771,-0.140579 1.566833,-0.844528 2.399994,-0.988007c0.886993,-0.152756 1.844543,0.084808 2.600006,-0.294662c0.867188,-0.435577 1.599976,-0.715332 2.5,-0.716003c0.899994,-0.000664 1.681702,-0.126534 2.352661,-0.647331c0.583771,-0.453117 1.547333,-0.352669 2.447327,-0.352669c0.899994,0 1.799988,0 2.701324,0c0.965332,0 1.645355,0 2.485352,0c0.997314,0 1.813324,0 2.629333,0c0.998657,0 1.873322,0 2.884003,0c0.799988,0 1.799988,0 2.589325,0c1.044006,0 1.799988,0 2.710663,0c0.910675,0 1.821503,0 2.710663,0c0.989166,0 1.768494,0 2.767822,0c0.71701,0 1.672974,-0.011848 2.505524,0.283997c0.706055,0.2509 1.635895,0.583305 2.615997,0.716171c0.906982,0.122955 1.50293,0.67215 2.384003,0.915833c0.842438,0.233002 1.702515,0.539673 2.515991,0.917328c0.760406,0.353012 1.505157,0.68222 2.200012,1.366669c0.604492,0.595444 1.186951,1.209656 1.998657,1.716003c0.737274,0.459915 1.168732,1.231995 1.517334,1.884003c0.453064,0.847382 0.756622,1.584686 1.283997,2.366669c0.430878,0.638885 0.7836,1.361023 1.399994,2.207993c0.584686,0.803391 1.09198,1.411453 1.43335,2.458664c0.211517,0.648834 0.166656,1.650665 0.166656,2.514008c0,0.895493 -0.180542,1.953308 0.283997,2.568665c0.515778,0.683212 0.579437,1.440643 1,2.283997c0.329926,0.661652 0.713745,1.499985 0.716003,2.400009c0.002228,0.899994 0,1.799988 0,2.699997c0,0.901337 -0.045166,1.868958 0.010681,2.52533c0.086456,1.016327 0.736298,1.702698 0.953308,2.585327c0.21759,0.885025 0.036011,1.764008 0.036011,2.70401c0,0.88533 -0.100433,1.695755 0.036011,2.521332c0.144043,0.871689 0.726288,1.68129 0.90683,2.606827c0.16449,0.843185 0.057159,1.757172 0.057159,2.557175c0,0.957169 0,1.861664 0,2.661667c0,0.959671 0,1.763657 0,2.585663c0,1.031174 0,1.931839 0,2.952667c0,0.800003 0,1.600006 0,2.595505c0,0.74733 0,1.77916 0,2.72583c0,0.678665 0,1.657333 0,2.562668c0,0.94133 0,1.632004 0,2.636826c0,1.022003 0,1.740509 0,2.531006c0,1.026672 0,1.927338 0,2.948166c0,0.789337 0,1.514664 0,2.520828c0,1.021835 0,1.729843 0,2.473831c0,1.19101 0.005066,2.005356 0,2.890671c-0.004517,0.785385 -0.082031,1.698929 -0.333344,2.61467c-0.20816,0.758438 -0.516663,1.565582 -0.815979,2.388c-0.282043,0.774902 -0.589569,1.731155 -0.865356,2.705338c-0.253906,0.896912 -0.599976,1.615372 -0.985321,2.406662c-0.404175,0.829971 -0.724304,1.563995 -1,2.5c-0.219513,0.745209 -0.394196,1.566772 -0.600006,2.388c-0.194489,0.776062 -0.630463,1.957001 -0.963989,2.705338c-0.389862,0.874741 -0.32608,1.629517 -0.720001,2.521332c-0.326874,0.740021 -0.713745,1.585312 -0.716003,2.485336c-0.002228,0.899994 0.11203,1.85321 -0.285339,2.601334c-0.401917,0.756683 -1.073669,1.429474 -1.357483,2.203156c-0.355072,0.967941 -0.264343,1.799805 -0.641174,2.711502c-0.280029,0.67746 -0.567017,1.557541 -0.800018,2.400009c-0.243683,0.881027 -0.792145,1.696365 -1,2.369324c-0.296234,0.95903 -0.658844,1.67514 -1.315979,2.478668c-0.553528,0.676834 -1.200012,1.236008 -1.899994,1.936005c-0.5,0.5 -1.200012,1.199997 -1.900024,1.899994c-0.5,0.5 -1.199982,1.199997 -1.799988,1.800003c-0.600006,0.600006 -1.296234,1.303802 -1.799988,1.800003c-0.694855,0.684433 -1.610687,1.005661 -2.300171,1.642838c-0.524994,0.485199 -1.036743,1.429718 -1.725189,1.921158c-0.664185,0.474121 -1.434357,0.927246 -2.058655,1.521332c-0.789124,0.750916 -1.296906,1.326736 -2.115997,1.947998c-0.575806,0.436737 -1.365662,0.828796 -2.115997,1.366669c-0.657928,0.471649 -1.547943,1.081039 -2.231323,1.500015c-0.780792,0.478699 -1.312836,1.038025 -2.063354,1.699982c-0.723846,0.638397 -1.432281,0.971039 -2.105316,1.399994c-0.883362,0.563019 -1.644531,1.210327 -2.330688,1.610687c-0.60968,0.355743 -1.578217,0.904785 -2.101501,1.242004c-0.796265,0.513123 -1.711121,1.190338 -2.24649,1.590149c-0.763062,0.569824 -1.579102,0.948303 -2.326172,1.278015c-0.801361,0.353638 -1.562988,0.792999 -2.243164,1.293823c-0.636566,0.468689 -1.634003,1.02478 -2.436005,1.200012c-0.997681,0.217987 -1.821625,0.491821 -2.399994,0.871979c-0.832764,0.547363 -1.296204,1.210754 -2.233337,1.779999c-0.73938,0.449127 -1.658051,0.605469 -2.377319,0.944c-0.796326,0.374817 -1.598877,0.7547 -2.304016,1.189331c-0.887512,0.547028 -1.651978,1.033356 -2.485321,1.200012c-0.833344,0.166656 -1.592072,0.674805 -2.485321,0.915985c-0.708191,0.191223 -1.738159,0.250031 -2.493835,0.604858c-0.886536,0.41626 -1.465027,1.025787 -2.320831,1.426483c-0.871368,0.40799 -1.435364,0.775391 -2.352692,1c-0.848999,0.207886 -1.665771,0.565521 -2.547333,0.968658c-0.864441,0.395294 -1.534607,0.809723 -2.452667,1.031342c-0.682953,0.164886 -1.539764,0.52948 -2.513977,0.886017c-0.654358,0.239471 -1.54425,0.280212 -2.517334,0.735992c-0.557007,0.260895 -1.347504,0.809357 -2.394684,1.408997c-0.686066,0.392853 -1.361084,0.719879 -2.342499,0.90033c-0.786102,0.144531 -1.611084,0.03241 -2.61084,0.406677c-0.823761,0.30838 -1.506012,0.826477 -2.229309,1.114655c-0.785461,0.312927 -1.822418,0.688263 -2.502686,1c-0.8414,0.38559 -1.618622,0.834412 -2.399994,1.164001c-0.934784,0.394287 -1.723175,0.3685 -2.661346,0.446686c-1.016479,0.084717 -1.576447,0.694824 -2.574646,0.953308c-0.871948,0.225769 -1.84848,-0.117523 -2.600006,0.202667c-0.781219,0.332825 -1.499847,0.820679 -2.399994,0.833344c-0.904419,0.012726 -1.766663,0.166656 -2.600006,0.5c-0.833344,0.333344 -1.692078,0.559326 -2.410675,0.925323c-0.906586,0.461761 -1.625183,0.502686 -2.589325,0.741333c-0.806305,0.199554 -1.533356,0.492279 -2.479156,0.833344c-0.840424,0.30304 -1.671387,0.752716 -2.520844,1.166656c-0.652283,0.317871 -1.499847,0.820679 -2.399994,0.833344c-0.899902,0.012665 -1.636658,0.326141 -2.399994,0.716003c-0.752899,0.384521 -1.779724,-0.082703 -2.679169,0.30484c-0.714355,0.3078 -1.16748,0.973816 -2.173523,0.979156c-0.694641,0.003693 -1.758759,-0.10556 -2.547333,0.283997c-0.870056,0.42984 -1.599976,0.715332 -2.5,0.716003c-0.899994,0.000671 -1.838867,-0.060608 -2.599976,0.352661c-0.746246,0.405212 -1.5,0.646667 -2.400024,0.647339c-0.899994,0.000671 -1.799988,0 -2.699982,0c-0.899994,0 -1.881134,-0.137329 -2.547333,0.352661c-0.684235,0.503235 -1.463348,0.647339 -2.373993,0.647339c-0.853333,0 -1.793335,0 -2.67868,0l-0.799988,0l-0.900024,0l-0.863983,0.036011" id="svg_12" stroke-width="5" stroke="#000000" fill="none"/>
 </g>
</svg>